<svg id="Layer_1" data-name="Layer 1" xmlns="http://www.w3.org/2000/svg" viewBox="0 0 79 54.31"><defs><style>.cls-1{fill:#3a3a3a;}</style></defs><title>level</title><polygon points="79 42.17 79 54.31 0 54.31 0 54 10.38 42.17 79 42.17"/><polygon points="79 21.08 79 33.22 18.41 33.22 18.41 33.03 28.9 21.08 79 21.08"/><polygon points="79 0 79 12.14 36.84 12.14 36.84 12.03 47.4 0 79 0"/><polygon class="cls-1" points="10.38 42.17 0 54 0 42.17 10.38 42.17"/><polygon class="cls-1" points="28.9 21.08 18.41 33.03 18.41 21.08 28.9 21.08"/><polygon class="cls-1" points="47.4 0 36.84 12.03 36.84 0 47.4 0"/></svg>