<svg id="Layer_1" data-name="Layer 1" xmlns="http://www.w3.org/2000/svg" viewBox="0 0 39 39"><defs><style>.cls-1{fill:#fff;}.cls-2{fill-rule:evenodd;}.cls-3{fill:none;stroke:#ed1c24;stroke-miterlimit:10;stroke-width:2px;}</style></defs><title>cross-location</title><circle class="cls-1" cx="19.5" cy="19.5" r="19.5"/><g id="Page-1"><g id="Icon-Set"><path id="location" class="cls-2" d="M122.5,66.62a3.12,3.12,0,1,1,3.13-3.12,3.11,3.11,0,0,1-3.13,3.12Zm0-8.33a5.21,5.21,0,1,0,5.21,5.21,5.21,5.21,0,0,0-5.21-5.21Zm0,22.92c-1.73,0-10.42-13.35-10.42-17.71a10.42,10.42,0,1,1,20.84,0c0,4.3-8.71,17.72-10.42,17.71Zm0-30.21A12.5,12.5,0,0,0,110,63.5c0,5.23,10.42,20.84,12.5,20.83S135,68.66,135,63.5A12.5,12.5,0,0,0,122.5,51Z" transform="translate(-103 -48)"/></g></g><line class="cls-3" x1="4.66" y1="6.64" x2="32.56" y2="34.1"/></svg>