<svg id="Layer_1" data-name="Layer 1" xmlns="http://www.w3.org/2000/svg" viewBox="0 0 39 39"><defs><style>.cls-1{fill:#fff;}.cls-2{fill:none;stroke:#ed1c24;stroke-miterlimit:10;stroke-width:2px;}</style></defs><title>cross-wifi</title><circle class="cls-1" cx="19.5" cy="19.5" r="19.5"/><circle cx="19.22" cy="28.31" r="3.53"/><path d="M124.22,60.91a9.43,9.43,0,0,0-7.65,3.94,1.58,1.58,0,0,0,.36,2.19,1.56,1.56,0,0,0,.91.29,1.59,1.59,0,0,0,1.28-.65,6.27,6.27,0,0,1,10.21,0,1.57,1.57,0,0,0,2.55-1.83A9.47,9.47,0,0,0,124.22,60.91Z" transform="translate(-105 -42)"/><path d="M124.22,55a15.27,15.27,0,0,0-11.36,5.07,1.57,1.57,0,1,0,2.33,2.09,12.14,12.14,0,0,1,18.07,0,1.57,1.57,0,1,0,2.33-2.09A15.29,15.29,0,0,0,124.22,55Z" transform="translate(-105 -42)"/><path d="M139.32,55.5a21.14,21.14,0,0,0-30.19,0,1.57,1.57,0,0,0,2.24,2.19,18,18,0,0,1,25.71,0,1.57,1.57,0,0,0,2.24-2.19Z" transform="translate(-105 -42)"/><line class="cls-2" x1="5.73" y1="5.66" x2="35.5" y2="31.08"/></svg>