<svg id="Layer_1" data-name="Layer 1" xmlns="http://www.w3.org/2000/svg" viewBox="0 0 75.74 78"><defs><style>.cls-1{fill:#b3b3b3;stroke:#000;stroke-miterlimit:10;stroke-width:2px;}</style></defs><title>wheel</title><path class="cls-1" d="M154.74,80.42V67H149a31.06,31.06,0,0,0-3.89-9.66l6.5-6.5-9.47-9.47-6.31,6.31A31.24,31.24,0,0,0,124.49,43V36.44H112.32V43a31.21,31.21,0,0,0-11.14,4.57l-5.66-5.66-9.47,9.47,5.78,5.78a31.17,31.17,0,0,0-4,9.86H81V80.42h6.82A31.24,31.24,0,0,0,92,90.62l-5.82,5.82,9.47,9.47,5.82-5.82a31.24,31.24,0,0,0,10.81,4.35v8h12.17v-8a31.15,31.15,0,0,0,11-4.48l6.47,6.47L151.43,97l-6.54-6.54a31,31,0,0,0,4.1-10ZM97.62,73.73a20.79,20.79,0,0,1,20.79-20.79c.6,0,1.2,0,1.79.08A20.78,20.78,0,0,1,121,94.35a22.06,22.06,0,0,1-2.58.16A20.79,20.79,0,0,1,97.62,73.73Z" transform="translate(-80 -35.44)"/></svg>